<?xml version="1.0" encoding="utf-8"?>
<!-- Generator: Adobe Illustrator 26.0.1, SVG Export Plug-In . SVG Version: 6.00 Build 0)  -->
<svg version="1.1" id="Layer_1" xmlns="http://www.w3.org/2000/svg" xmlns:xlink="http://www.w3.org/1999/xlink" x="0px" y="0px"
	 viewBox="0 0 106 38" style="enable-background:new 0 0 106 38;" xml:space="preserve">
<style type="text/css">
	.st0{fill-rule:evenodd;clip-rule:evenodd;fill:#1E4DB7;stroke:#1E4DB7;}
	.st1{fill:#1A9BFC;stroke:#1A9BFC;}
	.st2{fill:#FEC90F;stroke:#FEC90F;}
	.st3{fill:#11142D;}
</style>
<path id="Rounded_Rectangle_698" class="st0" d="M8.7,4.1c3.3,0,5.9,2.6,5.9,5.9v18.2c0,3.3-2.6,5.9-5.9,5.9s-5.9-2.6-5.9-5.9
	c0,0,0,0,0,0V10C2.8,6.7,5.5,4.1,8.7,4.1z"/>
<path id="Rounded_Rectangle_699" class="st1" d="M9,3h13c3.3,0,6,2.7,6,6l0,0c0,3.3-2.7,6-6,6H9c-3.3,0-6-2.7-6-6l0,0
	C3,5.7,5.7,3,9,3z"/>
<circle class="st2" cx="21.7" cy="24" r="6.3"/>
<path class="st3" d="M42.4,27.8H36c-0.3,0-0.4-0.2-0.4-0.5V12h1.5c0.1,0,0.2,0,0.3,0.1s0.1,0.2,0.1,0.4v13.3h4.4
	c0.3,0,0.4,0.2,0.4,0.5V27.8z"/>
<path class="st3" d="M46,13.1c0,0.5-0.1,0.8-0.3,1c-0.2,0.2-0.5,0.3-0.8,0.3c-0.4,0-0.7-0.1-0.9-0.3c-0.2-0.2-0.3-0.5-0.3-1
	c0-0.4,0.1-0.8,0.3-1c0.2-0.2,0.5-0.3,0.9-0.3c0.4,0,0.7,0.1,0.8,0.3C45.9,12.3,46,12.7,46,13.1z M45.8,27.8h-1.4
	c-0.3,0-0.4-0.2-0.4-0.5V16.2h1.4c0.3,0,0.4,0.2,0.4,0.5V27.8z"/>
<path class="st3" d="M60.4,27.8H59c-0.3,0-0.4-0.2-0.4-0.5v-7.2c0-0.8-0.1-1.4-0.4-1.7s-0.6-0.5-1.1-0.5c-0.5,0-0.9,0.1-1.2,0.4
	c-0.3,0.3-0.6,0.5-0.8,0.8c0,0.4,0.1,0.8,0.1,1.2v7.6h-1.4c-0.1,0-0.2,0-0.3-0.1c-0.1-0.1-0.1-0.2-0.1-0.4v-7.2
	c0-0.8-0.1-1.4-0.4-1.7s-0.6-0.5-1.1-0.5c-0.5,0-0.9,0.1-1.2,0.4c-0.3,0.2-0.6,0.5-0.8,0.8v8.8h-1.4c-0.3,0-0.4-0.2-0.4-0.5V16.2
	h1.1c0.1,0,0.2,0,0.3,0.1c0.1,0.1,0.1,0.2,0.2,0.5l0.1,0.7c0.3-0.5,0.7-0.8,1.2-1.1c0.4-0.3,1-0.4,1.6-0.4c0.5,0,1,0.1,1.4,0.4
	c0.4,0.2,0.7,0.7,0.9,1.3c0.3-0.4,0.7-0.8,1.2-1.1s1.1-0.5,1.8-0.5c0.8,0,1.5,0.3,2,0.9c0.5,0.6,0.7,1.6,0.7,3V27.8z"/>
<path class="st3" d="M64.6,13.1c0,0.5-0.1,0.8-0.3,1c-0.2,0.2-0.5,0.3-0.8,0.3c-0.4,0-0.7-0.1-0.9-0.3c-0.2-0.2-0.3-0.5-0.3-1
	c0-0.4,0.1-0.8,0.3-1c0.2-0.2,0.5-0.3,0.9-0.3c0.4,0,0.7,0.1,0.8,0.3C64.5,12.3,64.6,12.7,64.6,13.1z M64.4,27.8H63
	c-0.3,0-0.4-0.2-0.4-0.5V16.2H64c0.3,0,0.4,0.2,0.4,0.5V27.8z"/>
<path class="st3" d="M71.2,27.8c-0.3,0.1-0.5,0.2-0.8,0.2c-0.2,0-0.5,0.1-0.8,0.1c-0.9,0-1.5-0.2-1.9-0.7c-0.4-0.5-0.6-1.3-0.6-2.3
	v-7h-0.6c-0.3,0-0.4-0.2-0.4-0.5v-1.3h1.1l0.1-3h1.3c0.3,0,0.4,0.2,0.4,0.5v2.5h1.8c0.1,0,0.2,0,0.3,0.1c0.1,0.1,0.1,0.2,0.1,0.4V18
	H69v6.9c0,0.4,0.1,0.7,0.2,1s0.3,0.3,0.6,0.3c0.2,0,0.4,0,0.5,0c0.1,0,0.3,0,0.4,0c0.3,0,0.5,0.2,0.5,0.5V27.8z"/>
<path class="st3" d="M76.1,27.7c-0.2,0.1-0.4,0.1-0.6,0.2S75,28,74.8,28c-0.4,0-0.7-0.1-0.9-0.2s-0.4-0.4-0.6-0.7
	c-0.1-0.3-0.2-0.7-0.3-1.1c-0.1-0.4-0.1-0.9-0.1-1.5V11.4h1.4c0.1,0,0.2,0,0.3,0.1s0.1,0.2,0.1,0.4v13.2c0,0.4,0.1,0.7,0.2,0.8
	s0.3,0.2,0.6,0.2c0.2,0,0.3,0.1,0.4,0.1c0.1,0.1,0.1,0.2,0.1,0.4V27.7z"/>
<path class="st3" d="M84.3,27.5c-0.3,0.2-0.7,0.3-1.2,0.4s-1.1,0.2-1.7,0.2c-0.7,0-1.3-0.1-1.8-0.3c-0.5-0.2-0.9-0.6-1.3-1
	c-0.3-0.5-0.6-1.1-0.7-1.9c-0.2-0.8-0.2-1.7-0.2-2.8s0.1-2,0.2-2.8c0.2-0.8,0.4-1.4,0.7-1.9s0.7-0.9,1.2-1.1c0.5-0.2,1-0.3,1.6-0.3
	c0.7,0,1.3,0.1,1.7,0.4s0.8,0.6,1,1c0.3,0.4,0.4,0.9,0.5,1.5c0.1,0.6,0.1,1.2,0.1,1.8c0,0.4,0,0.9-0.1,1.3s-0.1,0.7-0.1,0.9h-5.3
	c0,0.6,0.1,1.1,0.2,1.6c0.1,0.4,0.2,0.8,0.4,1s0.5,0.5,0.8,0.6c0.3,0.1,0.8,0.2,1.3,0.2c0.5,0,0.9,0,1.3-0.1
	c0.4-0.1,0.6-0.1,0.8-0.1c0.3,0,0.4,0.2,0.4,0.5V27.5z M82.9,21.2c0-0.2,0-0.3,0-0.3v-0.3c0-1-0.1-1.7-0.4-2.2
	c-0.2-0.5-0.7-0.7-1.4-0.7c-0.4,0-0.7,0.1-1,0.3c-0.3,0.2-0.5,0.4-0.6,0.7c-0.2,0.3-0.3,0.7-0.3,1.1c-0.1,0.4-0.1,0.9-0.1,1.5H82.9z
	"/>
<path class="st3" d="M86.3,25.9c0.4,0.1,0.8,0.1,1.3,0.2c0.5,0.1,0.9,0.1,1.4,0.1c0.8,0,1.3-0.1,1.6-0.4c0.3-0.3,0.4-0.7,0.4-1.2
	c0-0.3,0-0.5-0.1-0.7c-0.1-0.2-0.2-0.3-0.3-0.5c-0.1-0.1-0.3-0.2-0.6-0.4c-0.2-0.1-0.6-0.2-0.9-0.3c-0.4-0.1-0.8-0.3-1.2-0.4
	c-0.4-0.1-0.7-0.3-0.9-0.6s-0.4-0.6-0.6-0.9c-0.1-0.4-0.2-0.9-0.2-1.5c0-1.2,0.3-2.1,0.8-2.6s1.4-0.8,2.4-0.8c0.2,0,0.4,0,0.7,0
	c0.2,0,0.5,0.1,0.7,0.1c0.2,0,0.4,0.1,0.6,0.1s0.4,0.1,0.5,0.2c0.1,0.1,0.2,0.2,0.3,0.3c0.1,0.1,0.1,0.2,0.1,0.4v1
	c-0.5-0.1-1-0.1-1.4-0.2s-0.8-0.1-1.1-0.1c-0.7,0-1.2,0.1-1.4,0.3c-0.3,0.2-0.4,0.6-0.4,1.1c0,0.3,0,0.5,0.1,0.7
	c0.1,0.2,0.2,0.3,0.3,0.4c0.2,0.1,0.4,0.2,0.6,0.3c0.3,0.1,0.6,0.2,0.9,0.3c0.4,0.1,0.8,0.3,1.1,0.4c0.3,0.1,0.6,0.3,0.9,0.6
	c0.3,0.2,0.4,0.5,0.6,0.9c0.1,0.4,0.2,0.9,0.2,1.5c0,0.7-0.1,1.2-0.2,1.7s-0.4,0.8-0.7,1.1c-0.3,0.3-0.7,0.5-1.1,0.6
	c-0.4,0.1-0.9,0.2-1.4,0.2c-0.2,0-0.5,0-0.7,0c-0.3,0-0.5-0.1-0.8-0.1s-0.5-0.1-0.7-0.1c-0.2-0.1-0.4-0.1-0.5-0.2
	c-0.1-0.1-0.2-0.2-0.3-0.3s-0.1-0.3-0.1-0.4V25.9z"/>
<path class="st3" d="M94.2,25.9c0.4,0.1,0.8,0.1,1.3,0.2c0.5,0.1,0.9,0.1,1.4,0.1c0.8,0,1.3-0.1,1.6-0.4c0.3-0.3,0.4-0.7,0.4-1.2
	c0-0.3,0-0.5-0.1-0.7c-0.1-0.2-0.2-0.3-0.3-0.5c-0.1-0.1-0.3-0.2-0.6-0.4c-0.2-0.1-0.6-0.2-0.9-0.3c-0.4-0.1-0.8-0.3-1.2-0.4
	c-0.4-0.1-0.7-0.3-0.9-0.6s-0.4-0.6-0.6-0.9c-0.1-0.4-0.2-0.9-0.2-1.5c0-1.2,0.3-2.1,0.8-2.6s1.4-0.8,2.4-0.8c0.2,0,0.4,0,0.7,0
	c0.2,0,0.5,0.1,0.7,0.1c0.2,0,0.4,0.1,0.6,0.1s0.4,0.1,0.5,0.2c0.1,0.1,0.2,0.2,0.3,0.3c0.1,0.1,0.1,0.2,0.1,0.4v1
	c-0.5-0.1-1-0.1-1.4-0.2s-0.8-0.1-1.1-0.1c-0.7,0-1.2,0.1-1.4,0.3c-0.3,0.2-0.4,0.6-0.4,1.1c0,0.3,0,0.5,0.1,0.7
	c0.1,0.2,0.2,0.3,0.3,0.4c0.2,0.1,0.4,0.2,0.6,0.3c0.3,0.1,0.6,0.2,0.9,0.3c0.4,0.1,0.8,0.3,1.1,0.4c0.3,0.1,0.6,0.3,0.9,0.6
	c0.3,0.2,0.4,0.5,0.6,0.9c0.1,0.4,0.2,0.9,0.2,1.5c0,0.7-0.1,1.2-0.2,1.7s-0.4,0.8-0.7,1.1c-0.3,0.3-0.7,0.5-1.1,0.6
	c-0.4,0.1-0.9,0.2-1.4,0.2c-0.2,0-0.5,0-0.7,0c-0.3,0-0.5-0.1-0.8-0.1s-0.5-0.1-0.7-0.1c-0.2-0.1-0.4-0.1-0.5-0.2
	c-0.1-0.1-0.2-0.2-0.3-0.3s-0.1-0.3-0.1-0.4V25.9z"/>
</svg>
